<svg xmlns="http://www.w3.org/2000/svg" viewBox="0 0 1440 1024"><filter id="b"><feGaussianBlur stdDeviation="12" /></filter><path fill="#282f39" d="M0 0h1440v1023H0z"/><g filter="url(#b)" transform="translate(2.8 2.8) scale(5.625)" fill-opacity=".5"><ellipse fill="#fffff4" rx="1" ry="1" transform="rotate(59.8 21.5 220) scale(16.03662 9.19259)"/><path fill="#fff" d="M177.2 166.3l17-.8 13.7 1.3-28.4 24z"/><ellipse rx="1" ry="1" transform="matrix(22.64925 -13.43222 30.83697 51.99693 231.4 162.3)"/><path fill="#ffffbe" d="M131.2 187.4l-3.6-1.8 13.2-27 3.6 1.8z"/><ellipse fill="#f7d5d0" rx="1" ry="1" transform="matrix(.48077 -7.11661 11.2267 .75843 196.2 89.4)"/><path fill="#fff" d="M207 168l-30 9 3-11z"/><path fill="#02040c" d="M146.2 165.4l78.5-71.1-58.4 96.8-42 .6z"/><path fill="#d6c5c1" d="M169 155h-16l2-14z"/><ellipse rx="1" ry="1" transform="rotate(-171.9 68.4 77.5) scale(6.31257 21.78765)"/><ellipse fill="#303b46" rx="1" ry="1" transform="rotate(155.8 78.7 45.2) scale(107.3354 34.60637)"/><ellipse fill="#000004" rx="1" ry="1" transform="matrix(-9.46082 -20.81266 44.28277 -20.12965 231 181)"/><ellipse fill="#556b79" cx="232" cy="66" rx="252" ry="2"/><path d="M190.9 161L157 180.3l39 15.2-35.6-40.4z"/><path fill="#63707c" d="M124 97h78v3h-78z"/><path fill="#f6cac0" d="M198 87l11.4-2.8-.2 29-3-6.6z"/><ellipse fill="#536a77" cx="113" cy="122" rx="94" ry="2"/><path fill="#f8feff" d="M198.4 171.5L185 182l-7.4-9.5L191 162z"/><ellipse fill="#1c242e" rx="1" ry="1" transform="matrix(-74.07835 -229.02683 41.38842 -13.38702 11 121.1)"/><ellipse fill="#566d7a" cx="51" cy="114" rx="144" ry="2"/><ellipse fill="#506776" cx="32" cy="130" rx="185" ry="2"/><ellipse fill="#566c79" cx="140" cy="74" rx="170" ry="2"/><ellipse fill="#556a78" cx="181" cy="58" rx="206" ry="2"/><path fill="#00000b" d="M210 93h12v23h-12z"/><ellipse fill="#495c69" cx="227" rx="255" ry="4"/><path fill="#19212e" d="M149 162l43-41 40 46z"/><ellipse fill="#546978" cx="98" cy="50" rx="197" ry="2"/><ellipse fill="#526773" cx="186" cy="42" rx="211" ry="2"/><ellipse cx="181" cy="45" rx="199" ry="1"/><ellipse fill="#5c727d" cx="228" cy="82" rx="255" ry="2"/><ellipse fill="#506472" cx="160" cy="10" rx="154" ry="2"/><ellipse fill="#4f626e" cx="105" cy="106" rx="180" ry="2"/><ellipse fill="#4d626f" cx="46" cy="18" rx="255" ry="2"/><ellipse cx="170" cy="61" rx="174" ry="1"/><ellipse fill="#4f6573" cx="125" cy="34" rx="160" ry="2"/><ellipse cx="197" cy="69" rx="198" ry="1"/><ellipse cx="155" cy="53" rx="165" ry="1"/><path fill="#4e616d" d="M0 25h256v3H0z"/><ellipse fill="#4a606f" cx="76" cy="138" rx="116" ry="2"/><ellipse cx="167" cy="37" rx="182" ry="1"/><ellipse fill="#03040c" cx="66" cy="28" rx="188" ry="2"/><ellipse cx="79" cy="109" rx="136" ry="1"/><ellipse fill="#546875" cx="43" cy="90" rx="147" ry="2"/><ellipse cx="124" cy="77" rx="141" ry="1"/><ellipse fill="#0d0e17" cx="91" cy="102" rx="104" ry="3"/><path d="M117.2 152.2l13.5 25.2 11.7-39.7 11.6 20.6z"/><ellipse fill="#05060e" cx="77" cy="20" rx="214" ry="2"/><path d="M0 4h161v2H0z"/><path fill="#495f6e" d="M0 145h125v3H0z"/><ellipse cx="186" cy="13" rx="194" ry="1"/><ellipse fill="#96b9d3" cx="164" cy="167" rx="3" ry="3"/><ellipse cx="72" cy="85" rx="112" ry="1"/><path d="M186.5 91.1v1L31.5 95v-1z"/><ellipse fill="#02030d" cx="69" cy="141" rx="117" ry="2"/><ellipse cx="123" cy="36" rx="179" ry="1"/><path d="M20 118l170-3v1l-170 3z"/><ellipse cx="96" cy="125" rx="106" ry="1"/><path d="M23 180h105v2H23z"/><ellipse fill="#4b5c68" cx="169" cy="18" rx="117" ry="2"/><ellipse cx="168" cy="44" rx="170" ry="1"/><ellipse fill="#0d121e" cx="69" cy="134" rx="255" ry="3"/><path d="M181 154l24 6-55 7z"/><ellipse cx="71" cy="52" rx="192" ry="1"/><path fill="#03040d" d="M0 172h128v5H0z"/><ellipse cx="81" cy="149" rx="71" ry="1"/><path fill="#4e6372" d="M0 97h170v3H0z"/><path fill="#8e5144" d="M209.1 111.5l.1-1.7-13-16.9-3 9.3z"/><ellipse cx="171" cy="12" rx="171" ry="1"/><ellipse fill="#01000a" rx="1" ry="1" transform="matrix(255 0 0 1 60.3 69)"/><ellipse cx="193" cy="60" rx="195" ry="1"/><ellipse fill="#435868" cx="61" cy="170" rx="65" ry="2"/><ellipse fill="#607783" cx="231" cy="90" rx="22" ry="2"/><ellipse fill="#f0e3e1" rx="1" ry="1" transform="matrix(2.45121 1.1176 -1.428 3.13202 159.2 148.3)"/><ellipse fill="#060810" cx="60" cy="158" rx="78" ry="3"/><path fill="#00010b" d="M219 125l-1-25-24 21z"/><path fill="#e3bf87" d="M133.9 170.6l7.6-11.5-11 37.9-2-14z"/><path fill="#1e2b3e" d="M222 128.6l-20.4 29.2-15.6-19.1 55.6-30.4z"/><path fill="#495a67" d="M60 25h190v3H60z"/><ellipse fill="#000006" cx="69" cy="165" rx="67" ry="2"/><path fill="#000007" d="M193.2 179.6l51.8-26.8-30.9-23.9 22.1 68.1z"/><ellipse fill="#445b6a" cx="63" cy="162" rx="53" ry="2"/><ellipse cx="28" cy="76" rx="230" ry="1"/><path fill="#455c6c" d="M8 153h102v3H8z"/><ellipse cy="84" rx="184" ry="1"/><ellipse fill="#5f7a88" cx="244" cy="98" rx="19" ry="2"/><path fill="#fde9e5" d="M209 90l-13 1 3-13z"/><path fill="#d5e3ec" d="M196 163.2l9.3 4.7-21.5 16 3.2-8.2z"/><ellipse fill="#000002" cx="90" cy="5" rx="198" ry="1"/><ellipse fill="#3d5262" cx="49" cy="178" rx="66" ry="2"/><path fill="#060000" d="M157.7 170l-29.3 20.8 13.6-24.2 31.7-10.6z"/><path fill="#c9c0b7" d="M137 159h9v5h-9z"/><path fill="#212f41" d="M270.3 136l-7.6 35-73-111.8 14.1 20.2z"/><path fill="#313843" d="M142.2 159.5l82-4.7-34.4-14.6 25.9 7z"/><ellipse fill="#070b12" cx="56" cy="23" rx="164" ry="1"/><ellipse fill="#000002" cx="212" cy="29" rx="186" ry="1"/><path d="M216 84h40v2h-40z"/><ellipse fill="#090b14" cx="110" cy="31" rx="119" ry="1"/><path fill="#07060f" d="M195.8 174l-11.2 18.5L262 197l-10.1-36.2z"/><ellipse cx="88" cy="133" rx="102" ry="1"/><ellipse fill="#131822" cx="154" cy="103" rx="19" ry="4"/><path fill="#445561" d="M0 121h59v3H0z"/></g></svg>